<svg width="75" height="76" viewBox="0 0 75 76" fill="none" xmlns="http://www.w3.org/2000/svg">
<path fill-rule="evenodd" clip-rule="evenodd" d="M37.5 6.5C20.2412 6.5 6.25 20.491 6.25 37.75C6.25 55.0088 20.2412 69 37.5 69C54.759 69 68.75 55.0088 68.75 37.75C68.75 20.491 54.759 6.5 37.5 6.5ZM37.5 62.75C23.715 62.75 12.5 51.535 12.5 37.75C12.5 23.965 23.715 12.75 37.5 12.75C51.2852 12.75 62.5 23.965 62.5 37.75C62.5 51.535 51.2852 62.75 37.5 62.75ZM41.4131 25.25C41.4131 27.5158 39.7634 29.1562 37.5317 29.1562C35.2098 29.1562 33.6006 27.5158 33.6006 25.2067C33.6006 22.9873 35.2533 21.3438 37.5317 21.3438C39.7634 21.3438 41.4131 22.9873 41.4131 25.25ZM34.3818 34.625H40.6318V53.375H34.3818V34.625Z" fill="#941723"/>
</svg>
