<svg width="67" height="67" viewBox="0 0 67 67" fill="none" xmlns="http://www.w3.org/2000/svg">
<path d="M33.5 33.25L46.0625 20.875" stroke="#951521" stroke-width="4.95" stroke-miterlimit="10" stroke-linecap="round" stroke-linejoin="round"/>
<path d="M62.8125 12.625H54.4375V4.375L46.0625 12.625V20.875H54.4375L62.8125 12.625Z" stroke="#951521" stroke-width="4.95" stroke-miterlimit="10" stroke-linecap="round" stroke-linejoin="round"/>
<path d="M33.5 45.625C40.4381 45.625 46.0625 40.0845 46.0625 33.25C46.0625 26.4155 40.4381 20.875 33.5 20.875C26.5619 20.875 20.9375 26.4155 20.9375 33.25C20.9375 40.0845 26.5619 45.625 33.5 45.625Z" stroke="#951521" stroke-width="4.95" stroke-miterlimit="10" stroke-linecap="round" stroke-linejoin="round"/>
<path d="M56.5312 18.8125C59.2531 22.9375 60.7188 27.8875 60.7188 33.25C60.7188 48.1 48.575 60.0625 33.5 60.0625C18.425 60.0625 6.28125 48.1 6.28125 33.25C6.28125 18.4 18.425 6.4375 33.5 6.4375C38.9437 6.4375 43.9688 7.88125 48.1562 10.5625" stroke="#951521" stroke-width="4.95" stroke-miterlimit="10" stroke-linecap="round" stroke-linejoin="round"/>
</svg>
